<svg width="355" height="512" viewBox="0 0 355 512" fill="none" xmlns="http://www.w3.org/2000/svg">
<mask id="mask0_4_31" style="mask-type:luminance" maskUnits="userSpaceOnUse" x="0" y="0" width="355" height="512">
<path d="M354.612 0H0V512H354.612V0Z" fill="white"/>
</mask>
<g mask="url(#mask0_4_31)">
<path d="M281.474 127.533C318.858 97.4852 338.551 59.8067 325.46 43.3766C312.369 26.9462 271.451 37.9861 234.068 68.0344C196.684 98.0829 176.991 135.761 190.081 152.191C203.172 168.622 244.09 157.582 281.474 127.533Z" fill="#29C16E"/>
<path d="M156.093 157.041C167.344 145.74 151.423 111.426 120.531 80.3981C89.6397 49.3705 55.4758 33.3789 44.2244 44.6799C32.9729 55.9809 48.8944 90.2953 79.7861 121.323C110.678 152.351 144.842 168.342 156.093 157.041Z" fill="#29C16E"/>
<path d="M307.504 323.996C323.863 310.85 312.871 269.752 282.955 232.203C253.039 194.654 215.525 174.874 199.167 188.022C182.809 201.171 193.8 242.269 223.717 279.816C253.632 317.365 291.147 337.145 307.504 323.996Z" fill="#EF3C56"/>
<path d="M36.6074 338.158C36.6074 377.272 52.0773 414.784 79.6137 442.441C107.15 470.1 144.498 485.637 183.44 485.637C264.536 485.637 385.582 352.038 308.481 326.841C223.89 299.201 184.878 193.54 167.346 191.565C86.7593 182.482 36.6074 256.707 36.6074 338.158Z" fill="#EF3C56"/>
<path d="M-7.33279e-05 22.2583C0.0414135 54.0576 8.54593 85.2676 24.6328 112.656C40.7195 140.044 63.8037 162.615 91.4944 178.031C76.982 186.116 63.6664 196.198 51.9345 207.987C25.6158 234.395 8.23167 268.448 2.24237 305.326C-3.74695 342.204 1.96181 380.041 18.5608 413.481C35.1596 446.921 61.8081 474.272 94.7352 491.663C127.662 509.051 165.2 515.603 202.038 510.384C238.875 505.165 273.147 488.445 300.002 462.586C326.857 436.728 344.934 403.043 351.678 366.296C358.423 329.549 353.492 291.603 337.582 257.827C321.673 224.051 295.59 196.155 263.028 178.087C290.756 162.693 313.872 140.122 329.978 112.72C346.085 85.318 354.592 54.0842 354.616 22.2632C354.616 19.3396 354.045 16.4444 352.93 13.7432C351.818 11.042 350.185 8.58754 348.128 6.5201C346.068 4.45266 343.624 2.81273 340.934 1.69398C338.247 0.57523 335.365 -0.000417518 332.453 -9.92124e-05C309.159 -0.0626938 286.081 4.51604 264.562 13.4712C243.04 22.4262 223.501 35.5797 207.075 52.1704C195.339 63.9543 185.301 77.3288 177.253 91.9047C161.917 64.0813 139.448 40.8864 112.177 24.7272C84.9058 8.56775 53.8261 0.0325429 22.1631 0.00714676C19.2532 0.00651036 16.3718 0.581571 13.6831 1.69945C10.9945 2.81733 8.55143 4.45615 6.49337 6.52236C4.43533 8.58856 2.80264 11.0417 1.68849 13.7417C0.574341 16.4417 0.000560149 19.3356 -7.33279e-05 22.2583ZM201.729 153.529C206.664 127.052 219.452 102.691 238.416 83.6429C257.379 64.5949 281.633 51.7494 307.994 46.7918C303.022 73.2529 290.221 97.5935 271.266 116.635C252.308 135.677 228.074 148.534 201.729 153.529ZM271.294 239.513C290.264 258.537 303.058 282.883 307.994 309.348C281.662 304.347 257.439 291.494 238.49 272.461C219.54 253.427 206.741 229.1 201.763 202.652C228.113 207.608 252.352 220.459 271.294 239.513ZM83.2737 239.469C103.156 219.394 128.916 206.241 156.78 201.937C162.004 240.561 179.69 276.4 207.131 303.962C234.571 331.524 270.25 349.291 308.705 354.538C305.466 375.377 297.358 395.15 285.046 412.235C272.737 429.321 256.573 443.238 237.878 452.842C219.183 462.448 198.49 467.471 177.491 467.5C156.492 467.527 135.786 462.562 117.065 453.007C98.3451 443.451 82.1436 429.58 69.7871 412.526C57.4304 395.474 49.27 375.724 45.9737 354.895C42.6772 334.066 44.3387 312.747 50.8217 292.686C57.305 272.625 68.4257 254.394 83.2737 239.479V239.469ZM46.6084 46.8233C72.9418 51.823 97.1638 64.6785 116.114 83.7122C135.064 102.746 147.864 127.075 152.841 153.524C126.509 148.523 102.289 135.668 83.3405 116.634C64.3918 97.5998 51.5946 73.2718 46.618 46.8233H46.6084Z" fill="#0E1E28"/>
</g>
</svg>
