<svg width="32" height="32" viewBox="0 0 32 32" fill="none" xmlns="http://www.w3.org/2000/svg">
<path d="M29.1466 16.6667C28.1825 15.5313 26.8155 14.8144 25.3333 14.6667C25.3333 12.0667 24.4266 9.86671 22.6133 8.05337C20.8 6.24004 18.6 5.33337 16 5.33337C13.8933 5.33337 12 5.96004 10.3333 7.24004C8.66665 8.52004 7.55998 10.16 6.99998 12.2C5.33331 12.5734 3.94665 13.44 2.89331 14.8C1.83998 16.16 1.33331 17.7067 1.33331 19.44C1.33331 21.4534 2.05331 23.1734 3.47998 24.5734C4.91998 26 6.66665 26.6667 8.66665 26.6667H24.6666C26.3333 26.6667 27.7466 26.08 28.92 24.92C30.08 23.7467 30.6666 22.3334 30.6666 20.6667C30.6666 19.1334 30.16 17.8 29.1466 16.6667ZM27.0266 23.0267C26.3866 23.68 25.6 24 24.6666 24H8.66665C7.37331 24 6.27998 23.5467 5.37331 22.6667C4.45331 21.72 3.99998 20.6267 3.99998 19.3334C3.99998 18.04 4.45331 16.9467 5.37331 16.04C6.27998 15.12 7.37331 14.6667 8.66665 14.6667H9.33331C9.33331 12.8267 9.99998 11.2534 11.28 9.94671C12.5866 8.66671 14.16 8.00004 16 8.00004C17.84 8.00004 19.4133 8.66671 20.72 9.94671C22 11.2534 22.6666 12.8267 22.6666 14.6667V17.3334H24.6666C25.6 17.3334 26.3866 17.6534 27.0266 18.3067C27.6666 18.96 28 19.7334 28 20.6667C28 21.6 27.68 22.3867 27.0266 23.0267ZM10.7066 13.9334C10.7066 12.8934 11.56 12.04 12.6 12.04C13.64 12.04 14.4933 12.8934 14.4933 13.9334C14.4933 14.9734 13.64 15.8267 12.6 15.8267C11.56 15.8267 10.7066 14.9734 10.7066 13.9334ZM21.2933 20.7334C21.2933 21.7734 20.44 22.6267 19.4 22.6267C18.36 22.6267 17.5066 21.7734 17.5066 20.7334C17.5066 19.6934 18.36 18.84 19.4 18.84C20.44 18.84 21.2933 19.6934 21.2933 20.7334ZM19.7333 12L21.3333 13.6L12.2666 22.6667L10.6666 21.0667L19.7333 12Z" fill="black"/>
</svg>
