<svg width="32" height="32" viewBox="0 0 32 32" fill="none" xmlns="http://www.w3.org/2000/svg">
<path d="M13 17.26V6C13 4.93913 12.5786 3.92172 11.8284 3.17157C11.0783 2.42143 10.0609 2 9 2C7.93913 2 6.92172 2.42143 6.17157 3.17157C5.42143 3.92172 5 4.93913 5 6V17.26C3.77702 18.1116 2.85772 19.3312 2.37592 20.7415C1.89412 22.1517 1.87496 23.6789 2.32123 25.1008C2.7675 26.5226 3.6559 27.765 4.85714 28.647C6.05837 29.529 7.50974 30.0046 9 30.0046C10.4903 30.0046 11.9416 29.529 13.1429 28.647C14.3441 27.765 15.2325 26.5226 15.6788 25.1008C16.125 23.6789 16.1059 22.1517 15.6241 20.7415C15.1423 19.3312 14.223 18.1116 13 17.26ZM9 4C9.53043 4 10.0391 4.21071 10.4142 4.58579C10.7893 4.96086 11 5.46957 11 6V13H7V6C7 5.46957 7.21071 4.96086 7.58579 4.58579C7.96086 4.21071 8.46957 4 9 4ZM9 28C7.89937 28 6.82951 27.6367 5.95633 26.9667C5.08316 26.2967 4.45546 25.3572 4.1706 24.2941C3.88573 23.231 3.95961 22.1036 4.38077 21.0867C4.80194 20.0698 5.54685 19.2204 6.5 18.67L7 18.39V15H11V18.39L11.5 18.67C12.4531 19.2204 13.1981 20.0698 13.6192 21.0867C14.0404 22.1036 14.1143 23.231 13.8294 24.2941C13.5445 25.3572 12.9168 26.2967 12.0437 26.9667C11.1705 27.6367 10.1006 28 9 28ZM20 4H30V6H20V4ZM20 10H27V12H20V10ZM20 16H30V18H20V16ZM20 22H27V24H20V22Z" fill="black"/>
</svg>
